HIERARCHY
ROOT Hips
{
  OFFSET -35.2597 29.1586 114.425
  CHANNELS 6 Xposition Yposition Zposition Zrotation Xrotation Yrotation
  JOINT LeftUpLeg
  {
    OFFSET 8.64259 1.95398 -2.38835
    CHANNELS 3 Zrotation Xrotation Yrotation
    JOINT LeftLeg
    {
      OFFSET 43.7702 0 0
      CHANNELS 3 Zrotation Xrotation Yrotation
      JOINT LeftFoot
      {
        OFFSET 40.6238 0 0
        CHANNELS 3 Zrotation Xrotation Yrotation
        JOINT LeftToeBase
        {
          OFFSET 12.7242 0 0
          CHANNELS 3 Zrotation Xrotation Yrotation
          End Site
          {
            OFFSET 0 0 0
          }
        }
      }
    }
  }
  JOINT RightUpLeg
  {
    OFFSET -8.2249 1.95398 -2.59336
    CHANNELS 3 Zrotation Xrotation Yrotation
    JOINT RightLeg
    {
      OFFSET 43.5653 0 0
      CHANNELS 3 Zrotation Xrotation Yrotation
      JOINT RightFoot
      {
        OFFSET 40.6238 0 0
        CHANNELS 3 Zrotation Xrotation Yrotation
        JOINT RightToeBase
        {
          OFFSET 12.7242 0 0
          CHANNELS 3 Zrotation Xrotation Yrotation
          End Site
          {
            OFFSET 0 0 0
          }
        }
      }
    }
  }
  JOINT Spine
  {
    OFFSET 0.165834 0.87714 6.61349
    CHANNELS 3 Zrotation Xrotation Yrotation
    JOINT Spine1
    {
      OFFSET 7.38963 1.71661e-005 0
      CHANNELS 3 Zrotation Xrotation Yrotation
      JOINT Spine2
      {
        OFFSET 11.9445 1.14441e-005 0
        CHANNELS 3 Zrotation Xrotation Yrotation
        JOINT Spine3
        {
          OFFSET 14.7254 4.19617e-005 0
          CHANNELS 3 Zrotation Xrotation Yrotation
          JOINT Spine4
          {
            OFFSET 10.9679 0 0
            CHANNELS 3 Zrotation Xrotation Yrotation
            JOINT RightShoulder
            {
              OFFSET 2.46616 -1.6653 3.69651
              CHANNELS 3 Zrotation Xrotation Yrotation
              JOINT RightArm
              {
                OFFSET 13.0012 0 0
                CHANNELS 3 Zrotation Xrotation Yrotation
                JOINT RightForeArm
                {
                  OFFSET 28.7848 1.62311e-005 0
                  CHANNELS 3 Zrotation Xrotation Yrotation
                  JOINT RightHand
                  {
                    OFFSET 26.5688 1.62095e-005 0
                    CHANNELS 3 Zrotation Xrotation Yrotation
                    End Site
                    {
                      OFFSET 0 0 0
                    }
                  }
                }
              }
            }
            JOINT LeftShoulder
            {
              OFFSET 2.38034 -1.29275 -3.7523
              CHANNELS 3 Zrotation Xrotation Yrotation
              JOINT LeftArm
              {
                OFFSET 16.3182 6.07031e-005 0
                CHANNELS 3 Zrotation Xrotation Yrotation
                JOINT LeftForeArm
                {
                  OFFSET 27.0901 0 0
                  CHANNELS 3 Zrotation Xrotation Yrotation
                  JOINT LeftHand
                  {
                    OFFSET 24.5451 1.51738e-005 0
                    CHANNELS 3 Zrotation Xrotation Yrotation
                    End Site
                    {
                      OFFSET 0 0 0
                    }
                  }
                }
              }
            }
            JOINT Neck
            {
              OFFSET 5.0226 -0.0266342 0
              CHANNELS 3 Zrotation Xrotation Yrotation
              JOINT Head
              {
                OFFSET 6.69364 2.86102e-005 0
                CHANNELS 3 Zrotation Xrotation Yrotation
                End Site
                {
                  OFFSET 0 0 0
                }
              }
            }
          }
        }
      }
    }
  }
}
MOTION
Frames:	18
Frame Time:	0.0416667
-96.3691 92.2616 68.5863 -91.2765 -50.7142 -78.0973 -159.948 -41.8888 165.577 -28.4946 6.5687 0.851812 82.5069 -34.9989 64.9437 144.864 4.02047 -65.2894 176.109 28.522 106.406 -34.9909 -9.46903 4.59593 65.7722 -3.75153 -2.09032 23.8798 0.50684 4.63128 -1.2132 7.76467 -92.112 11.2708 -3.3973 -3.87049 -0.401001 -3.56423 -3.71737 -22.906 -2.07849 -4.7111 -2.89335 -2.07848 -4.7111 88.1626 -38.5895 -107.067 30.6098 14.0951 8.68305 -4.67029 -31.4752 -5.12945 -14.7996 0.646577 -10.5238 -88.6267 -58.6501 82.3126 -25.7724 -6.14586 -3.26674 19.7121 8.59342 -65.1241 25.3339 -5.2191 -24.6047 4.98885 1.28107 -8.98264 -5.12008 2.87777 0.426381 
-96.4548 89.8066 74.0462 -94.9406 -49.6453 -83.3079 -158.98 -43.3594 163.565 -34.7651 33.3702 1.02654 67.4354 -52.6679 63.2187 144.399 2.79648 -67.0558 174.7 30.6818 102.866 -49.1448 -13.1399 4.17905 71.2197 -6.28396 -4.21486 21.1443 1.25487 5.48548 -0.657937 7.94069 -91.7377 10.9512 -2.11404 -3.25663 -0.72186 -2.25523 -3.16054 -23.2287 -1.03835 -3.74077 -3.21606 -1.03834 -3.74077 87.3946 -38.2959 -108.514 32.9514 13.1673 6.21457 -4.60375 -30.19 -5.10205 -14.7351 0.723083 -11.1468 -89.0245 -59.4212 81.9011 -26.5971 -10.496 -31.5555 2.87033 23.9554 -3.92975 9.26001 -2.31472 -25.9497 7.6834 1.70152 -3.40087 -4.6932 2.31511 1.64949 
-94.3455 89.0094 78.0327 -96.1036 -49.995 -85.605 -164.258 -38.8818 159.406 -50.1699 53.4798 4.52302 44.8462 -64.2715 36.6211 144.671 3.7795 -65.6743 175.152 31.2155 98.2103 -53.7674 -14.0214 4.05836 73.7278 -6.34771 -3.44351 21.3972 1.3296 5.01804 -0.0332734 8.05979 -91.4178 10.7377 -0.719939 -2.7551 -0.935845 -0.840456 -2.72079 -23.4477 0.141021 -2.84405 -3.43509 0.141005 -2.84407 88.0471 -35.0168 -108.561 38.3042 10.629 0.73953 -4.41138 -26.3488 -5.03092 -20.5213 0.736429 -9.40816 -88.4058 -58.9265 82.6599 -23.1578 -13.2351 -24.4054 3.7887 43.7419 -4.86859 18.1951 -1.31488 -10.7825 8.3724 1.66118 1.91921 -4.42907 1.13175 3.49404 
-95.696 92.091 82.5938 -98.5086 -50.5005 -93.0293 -164.244 -38.4266 155.02 -45.2936 46.8171 4.00805 31.2925 -63.381 16.004 144.056 3.98851 -65.6205 177.304 24.6091 90.8742 -49.8561 -14.8767 1.92831 72.7578 -3.86249 -2.78779 24.9021 -0.50587 6.57535 0.453257 8.15163 -90.6803 10.5779 0.590036 -1.39975 -1.09364 0.527861 -1.42437 -23.6258 0.983454 -1.15776 -3.61312 0.983442 -1.15776 89.8041 -32.2722 -106.291 41.1638 8.48892 -4.457 -4.1105 -19.86 -4.94705 -23.9868 0.748195 -8.90421 -87.5403 -59.2835 83.8923 -19.4268 -15.4589 -16.4446 3.17445 32.0589 -4.24306 16.8758 -0.485659 -6.75189 2.87193 0.867298 4.31304 -4.24845 -0.0346318 5.252 
-100.751 97.7648 87.6808 -101.201 -47.7296 -100.853 -144.291 -48.1154 161.701 -7.5737 33.4814 0.53705 6.23099 -69.674 0.536311 145.582 4.66631 -64.1892 179.151 17.0264 86.9873 -45.0313 -15.4844 -2.9156 63.4209 5.45395 0.829659 21.6082 0.160142 8.03074 1.00756 8.26657 -89.707 10.3429 2.14144 0.395373 -1.32625 2.15678 0.300695 -23.8733 1.92358 1.0209 -3.86061 1.92359 1.0209 90.7129 -30.8162 -105.051 44.5341 6.47749 -6.85233 -3.99301 -17.2017 -4.92646 -28.5931 1.49785 -11.1375 -86.9482 -57.3745 84.4301 -15.1461 -17.3162 -9.36126 3.33857 35.7285 -4.40814 16.3083 -0.199383 -4.98609 -4.03915 0.0676171 3.65551 -5.82913 -0.428765 3.13459 
-105.607 101.472 92.3185 -98.7084 -42.6861 -101.357 -138.899 -53.4637 157.538 -1.69398 34.155 0.0219754 30.5678 -84.0712 26.3387 147.762 5.34105 -62.6109 178.261 18.0224 86.0568 -47.3584 -14.2621 -3.03264 61.0994 6.57917 2.29357 19.1342 1.67775 6.38156 1.55742 8.28128 -89.1311 10.2901 3.50041 1.42422 -1.37674 3.55967 1.26862 -23.9337 2.91055 2.41088 -3.92108 2.91054 2.41087 90.2447 -29.6036 -106.424 44.5891 6.13411 -8.07033 -4.24739 -22.8782 -4.98195 -26.863 2.61434 -16.3882 -86.6892 -51.8438 83.9823 -15.0792 -17.1321 -2.71375 3.69307 42.3018 -4.76764 11.5748 -0.698187 -9.33491 -5.34252 0.667064 3.73959 -5.78822 0.207936 2.62362 
-109.712 102.495 96.8822 -96.1317 -39.2711 -98.4641 -135.499 -55.2603 155.604 -2.46425 33.5139 -0.0500029 133.812 -78.4416 128.645 149.634 6.33091 -60.8282 175.69 20.458 87.9891 -46.1865 -13.7631 0.650546 58.8339 5.97787 5.25854 25.4831 0.322279 3.34006 1.65893 8.21768 -89.2427 10.4215 3.65173 1.1833 -1.24472 3.70027 1.02124 -23.8077 3.12722 2.22686 -3.79504 3.12722 2.22686 89.2141 -30.1083 -108.272 42.5823 6.63481 -9.75065 -4.38605 -25.8233 -5.02336 -28.2896 2.55222 -15.5514 -86.4905 -54.5782 84.6759 -10.5454 -18.1898 4.65873 4.00911 46.9686 -5.08891 8.11631 -1.26193 -16.9494 -4.84967 1.56136 6.7069 -4.18984 0.782714 4.24262 
-113.991 101.341 101.591 -96.2631 -36.2784 -97.9884 -131.923 -60.1725 155.276 -3.60044 25.7222 -0.266274 139.281 -65.0208 132.507 149.804 6.59947 -60.454 176.487 20.6343 90.8143 -45.0864 -16.289 -0.69471 60.4076 4.33436 3.48456 23.1258 1.25773 3.27089 1.57062 8.28221 -89.3422 10.2961 3.42998 1.01074 -1.37055 3.47114 0.858633 -23.9314 2.96757 1.99555 -3.91873 2.96757 1.99555 89.4292 -30.7725 -107.583 42.5738 6.16022 -11.6875 -4.39241 -25.9541 -5.02522 -28.5905 2.04862 -13.4078 -85.5809 -54.4409 85.9603 -12.3827 -17.3601 10.2182 3.92517 45.811 -5.00379 4.38136 -0.845033 -16.9188 -4.1768 3.05852 8.06859 -4.51685 2.04596 5.35793 
-118.146 97.8442 106.549 -95.6674 -33.2857 -98.1318 -131.716 -67.0216 151.451 -5.30474 12.8202 -0.73505 142.123 -50.7593 131.568 149.592 6.73966 -60.3396 175.493 21.7609 90.7707 -45.9206 -13.1152 -0.29708 57.9537 4.2188 -0.490559 25.0232 -1.38324 9.24012 1.46564 8.28502 -89.3961 10.2924 3.19611 0.924218 -1.37484 3.23371 0.782516 -23.9325 2.77052 1.84262 -3.91981 2.77055 1.84263 88.5485 -31.1919 -109.126 41.2428 6.9296 -11.1972 -4.37168 -25.5262 -5.01884 -26.1841 2.46995 -16.0835 -85.3843 -54.6077 86.263 -15.8979 -16.4577 14.0351 3.57991 40.3821 -4.6527 0.807277 -0.427614 -16.3243 -4.08146 4.48926 9.97527 -3.72611 3.30284 5.17831 
-121.713 92.0128 111.424 -95.9677 -30.0656 -98.9414 -133.204 -75.5888 145.793 -7.0889 5.50203 -1.22027 150.37 -29.243 136.546 149.156 6.66193 -60.5555 173.849 19.3603 90.1682 -55.8193 -12.7114 -1.93996 76.2824 -10.0789 -4.20925 35.093 -4.22365 7.12257 1.47414 8.38837 -89.5151 10.0894 3.1585 0.698882 -1.57782 3.18618 0.559055 -24.137 2.80236 1.61648 -4.12433 2.80236 1.61647 88.0354 -32.353 -109.634 39.0042 8.26494 -9.95503 -4.55157 -29.1752 -5.0815 -25.4158 2.84457 -18.1012 -85.6066 -57.5629 86.3144 -16.3435 -16.349 14.8085 3.24325 33.642 -4.3119 -4.86333 0.20292 -17.8064 -3.48882 5.47488 11.5929 -0.573733 4.18688 6.52475 
-125.665 87.757 116.358 -95.3333 -30.9744 -95.0425 -122.36 -74.2737 156.242 -7.84954 3.95314 -1.24003 153.902 -18.6261 137.516 149.081 6.4306 -60.863 172.717 16.952 91.8181 -61.578 -9.51058 -0.967573 87.8837 -16.2538 -1.68404 37.7572 -4.82503 5.59423 1.27714 8.30688 -90.1061 10.263 2.49604 -0.424778 -1.40569 2.47495 -0.534302 -23.9597 2.50823 0.345506 -3.94708 2.50823 0.345499 87.0799 -34.9412 -110.358 37.7948 9.28551 -7.60805 -4.61028 -30.317 -5.10308 -26.2477 1.90046 -13.5364 -85.5848 -65.7452 87.276 -12.0328 -17.3582 11.1398 2.89894 24.9358 -3.95546 -4.61836 0.10182 -11.1722 1.01577 6.87116 12.9422 -2.68429 4.75508 7.42071 
-130.429 85.5898 120.997 -94.3059 -34.9187 -94.727 -124.681 -73.5283 156.466 -7.10586 17.4763 -1.27518 155.046 -25.5331 140.929 150.113 6.20383 -60.8463 172.194 19.5018 90.4883 -70.9079 -8.74091 0.272367 81.4837 -10.8062 -3.87551 50.4608 -9.26749 7.82911 0.907565 7.94641 -89.8308 10.9813 1.88505 0.146842 -0.688273 1.88966 0.0637035 -23.2329 1.75372 0.706742 -3.22025 1.75372 0.706743 87.2352 -36.2056 -109.579 42.5125 8.81742 -0.703129 -4.34305 -24.9249 -5.01108 -20.5761 1.02801 -10.9265 -86.1703 -63.1076 86.2246 -18.5217 -15.9199 4.42203 2.40202 6.74728 -3.44586 4.87448 0.534801 4.00055 1.76367 5.95036 6.07519 -3.73964 4.85308 6.63954 
-134.571 84.01 124.706 -95.5874 -39.3207 -96.992 -125.206 -74.1014 159.295 -5.68038 35.4891 -1.02656 159.21 -40.4924 146.56 150.572 5.77337 -61.237 173.7 28.562 86.3962 -86.0155 -14.7806 0.147832 62.1298 0.51066 -0.542208 37.7775 -5.65916 9.95561 0.339202 7.83799 -89.2606 11.1921 1.01901 1.37669 -0.479064 1.07861 1.33051 -23.0098 0.558197 1.61924 -2.99716 0.558189 1.61923 87.2665 -35.8464 -109.664 49.1697 8.39218 6.42868 -4.06738 -18.8865 -4.93796 -16.4515 0.860845 -11.4932 -87.0772 -60.2975 84.6584 -19.7317 -15.4796 -4.12842 2.42162 7.51304 -3.46565 4.23487 0.442664 4.53455 6.23926 3.72498 -2.20155 -6.19013 4.15707 -1.36611 
-137.439 82.8236 127.777 -98.1779 -39.4008 -98.0272 -118.336 -77.8406 165.366 -4.7864 39.9675 -0.506875 164.127 -57.1463 150.183 150.508 5.95793 -61.0336 178.823 44.5787 83.5434 -100.537 -23.476 -2.62746 42.2274 9.59954 6.67099 21.3883 0.236873 8.0348 0.106964 8.03149 -89.1361 10.8035 0.611698 1.66113 -0.868378 0.684193 1.63259 -23.3951 0.0842665 1.76813 -3.38244 0.0842446 1.76813 88.4002 -34.7924 -108 50.2134 9.27448 10.6238 -4.2251 -22.3949 -4.97599 -14.7705 1.25877 -15.4251 -87.795 -58.9821 83.5007 -19.2262 -15.5796 -15.8139 2.83352 22.8441 -3.89207 0.501865 -0.115833 -5.37834 8.58979 1.69322 -9.30592 -2.55552 3.7267 -6.52842 
-140.44 84.2212 130.941 -96.4435 -36.9109 -94.1604 -123.794 -78.416 156.011 -5.27466 37.1114 -0.452588 165.408 -63.9955 151 150.564 6.00723 -60.9593 -172.405 62.0309 80.7994 -101.261 -21.1136 -4.01516 31.24 9.78229 10.1223 21.0739 0.441552 7.76448 -0.0541078 8.06716 -89.5129 10.7429 0.116971 0.958794 -0.928337 0.15908 0.952715 -23.4612 -0.176594 0.949625 -3.44857 -0.176579 0.949631 88.7949 -35.0068 -107.196 46.3801 9.9283 9.17682 -4.36558 -25.392 -5.01461 -21.5066 1.75926 -14.9666 -86.8451 -56.0058 84.376 -23.1171 -13.0465 -28.2643 2.89913 24.5251 -3.96235 6.33819 -0.437532 -8.8329 10.4477 1.30481 -13.3219 -1.98115 4.41298 -10.5534 
-143.607 88.3916 134.383 -97.6409 -35.2428 -89.339 -117.118 -74.3412 160.373 -6.74484 37.1795 -0.472419 165.472 -65.2999 151.061 150.38 5.62356 -61.4706 -174.376 66.8722 86.5622 -86.6319 -12.4811 -3.52882 25.7916 4.68723 5.80695 18.5134 1.31205 7.89344 -0.276252 8.27848 -90.3396 10.3153 -0.705868 -0.621489 -1.35561 -0.732526 -0.589823 -23.8903 -0.48646 -0.804893 -3.87765 -0.486449 -0.80489 88.5757 -34.6884 -107.715 44.8969 9.29667 4.81819 -4.04184 -18.3156 -4.93508 -28.6475 1.14698 -9.71522 -86.751 -54.1548 84.2427 -24.9286 -11.28 -35.6703 2.62215 15.2314 -3.64926 13.3425 -1.17106 -12.1737 5.24268 2.80753 -15.4844 -0.938427 5.59813 -12.8357 
-147.135 92.9328 138.28 -99.1612 -38.6089 -86.3278 -116.686 -69.7967 163.231 -8.74752 40.7729 0.617545 167.068 -63.9016 151.798 149.116 4.3439 -63.4051 -179.766 62.4432 90.3381 -67.3923 -6.04854 -1.81483 27.5346 -1.10841 1.47509 20.9042 1.15293 6.00751 -0.786471 8.47955 -91.0561 9.89516 -2.04672 -1.93027 -1.77548 -2.12966 -1.83834 -24.3059 -1.37217 -2.45596 -4.29327 -1.37216 -2.45596 88.0319 -34.4055 -108.827 42.294 9.5105 2.08863 -4.03472 -18.1523 -4.93394 -26.9299 1.56027 -11.9224 -86.6649 -50.7782 83.852 -26.2241 -9.73665 -41.2999 2.48025 9.78579 -3.51658 14.7224 -1.98952 -17.0222 -1.43871 3.73992 -19.6404 -1.61581 6.23199 -10.7356 
-150.41 95.2425 141.797 -96.5908 -45.3071 -83.7554 -124.272 -64.3329 161.085 -9.58061 41.8724 1.72636 165.049 -67.6014 148.888 148.108 3.75576 -64.4666 -177.231 57.6994 84.0301 -47.0617 -10.7785 -0.728662 24.5259 3.33915 7.01482 20.8568 0.948063 6.6105 -1.26186 8.34382 -91.6 10.1374 -3.24379 -2.90399 -1.53241 -3.36838 -2.75845 -24.0591 -2.2217 -3.74396 -4.04642 -2.22172 -3.74398 89.4291 -33.3432 -106.618 40.1876 9.98613 0.872915 -4.32281 -24.4968 -5.00339 -24.8241 2.69969 -17.759 -87.076 -47.6676 82.7163 -27.6046 -7.59497 -48.4773 2.51189 11.3915 -3.55887 16.0272 -2.81493 -21.0755 -5.53634 2.40681 -21.9392 -0.215273 4.32274 -8.30663 
